# xmcd CD database file
#
# Track frame offsets:
#	150
#	14635
#	28887
#	43917
#	57210
#	70692
#	84227
#	98575
#	112380
#	125077
#	137382
#	151420
#	163285
#	177417
#	188787
#
# Disc length: 2693 seconds
#
# Revision: 1
# Processed by: cddbd v1.5.2PL0 Copyright (c) Steve Scherf et al.
# Submitted via: CDex 1.70beta2
#
DISCID=d30a830f
DTITLE=George Shearing - Timeless
DYEAR=1900
DGENRE=Jazz
TTITLE0=Moon Over Miami
TTITLE1=Midnight On Cloud 69
TTITLE2=Sorry Wrong Rhumba
TTITLE3=Have You Met Miss Jones
TTITLE4=When Darkness Falls
TTITLE5=Cozy's Bob
TTITLE6=Life With Feather
TTITLE7=Be Bob's Fables
TTITLE8=Cotton Top
TTITLE9=Cherokee
TTITLE10=Sophisticated Lady
TTITLE11=Bob's Your Uncle
TTITLE12=Sweet And Loverly
TTITLE13=Buccaneers Bounce
TTITLE14=So Rare
EXTD=
EXTT0=
EXTT1=
EXTT2=
EXTT3=
EXTT4=
EXTT5=
EXTT6=
EXTT7=
EXTT8=
EXTT9=
EXTT10=
EXTT11=
EXTT12=
EXTT13=
EXTT14=
PLAYORDER=
